<?xml version="1.0" encoding="iso-8859-1"?>
<!-- Generator: Adobe Illustrator 22.0.1, SVG Export Plug-In . SVG Version: 6.00 Build 0)  -->
<svg version="1.1" xmlns="http://www.w3.org/2000/svg" xmlns:xlink="http://www.w3.org/1999/xlink" x="0px" y="0px"
	 viewBox="0 0 128 128" style="enable-background:new 0 0 128 128;" xml:space="preserve">
<g id="_x31_0">
	<path style="fill:#71B664;" d="M96.487,102.736v-2.954h7.25v-6.893h-7.25v-2.954h7.25V83.04h-7.25v-2.954h7.25v-6.893h-7.25v-2.954
		h7.25v-6.893h-7.25V60.39h7.25v-6.893h-7.25v-2.954h7.25v-6.893h-7.25v-2.954h7.25v-6.893h-7.25v-2.954h7.25V10.659L0,114.397
		h103.737v-11.662H96.487z M84.451,95.112H46.559l37.893-37.893V95.112z"/>
	<rect x="113.228" y="26.416" style="fill:#F7C000;" width="14.772" height="76.164"/>
	<path style="fill:#232323;" d="M128,105.031v4.924c0,4.079-3.307,7.386-7.386,7.386h0c-4.079,0-7.386-3.307-7.386-7.386v-4.924H128
		z"/>
	<polygon style="fill:#BA3B00;" points="120.614,10.659 113.228,26.416 128,26.416 	"/>
</g>
<g id="Layer_1">
</g>
</svg>
