<?xml version="1.0" encoding="utf-8"?>
<!-- Generator: Adobe Illustrator 22.0.1, SVG Export Plug-In . SVG Version: 6.00 Build 0)  -->
<svg version="1.1" id="Layer_1" xmlns="http://www.w3.org/2000/svg" xmlns:xlink="http://www.w3.org/1999/xlink" x="0px" y="0px"
	 viewBox="0 0 128 128" style="enable-background:new 0 0 128 128;" xml:space="preserve">
<style type="text/css">
	.st0{fill:#A86222;}
	.st1{fill:#DA5B78;}
</style>
<g id="_x39_">
	<path class="st0" d="M76.8,30H51.2L37.6,0h52.8L76.8,30z M33.7,78L10.9,29.9c-0.4-0.9-0.3-2.1,0.4-2.9l22-25.4l27.1,59.8l-0.7,0.1
		c-10.4,1.2-19.7,7-25.5,15.8L33.7,78z M94.9,78.7l-0.6-0.6c-5.7-9.3-15.2-15.4-26-16.7l-0.7-0.1L94.7,1.6l22,25.4
		c0.7,0.8,0.8,1.9,0.4,2.8L94.9,78.7z"/>
	<path class="st1" d="M90.6,80.4C90.6,80.4,90.6,80.4,90.6,80.4c-4.9-7.9-13.2-13.5-22.9-14.6c-1.2-0.2-2.5-0.2-3.7-0.2
		s-2.5,0.1-3.7,0.2c-9.4,1.1-17.5,6.4-22.4,13.9c-3.2,4.9-5.1,10.8-5.1,17.1c0,17.3,14,31.2,31.2,31.2c17.3,0,31.3-14,31.3-31.2
		C95.3,90.7,93.6,85.1,90.6,80.4z M64,119.5c-12.6,0-22.8-10.2-22.8-22.8S51.4,74,64,74c12.6,0,22.8,10.2,22.8,22.8
		S76.6,119.5,64,119.5z"/>
	<path d="M66.6,107.2H62V88.4h-4.6v-3.2l9.2-0.8V107.2z"/>
</g>
</svg>
